<mxfile host="Electron" agent="Mozilla/5.0 (X11; Linux x86_64) AppleWebKit/537.36 (KHTML, like Gecko) draw.io/27.0.9 Chrome/134.0.6998.205 Electron/35.4.0 Safari/537.36" version="27.0.9">
  <diagram name="Page-1" id="h7rfrnGWYNNU5JTca55-">
    <mxGraphModel dx="2850" dy="1203" grid="1" gridSize="10" guides="1" tooltips="1" connect="1" arrows="1" fold="1" page="1" pageScale="1" pageWidth="850" pageHeight="1100" math="0" shadow="0">
      <root>
        <mxCell id="0" />
        <mxCell id="1" parent="0" />
        <mxCell id="_EepjbirNKDPAddTrqMV-99" value="" style="group" parent="1" vertex="1" connectable="0">
          <mxGeometry x="1220" y="280" width="240" height="200" as="geometry" />
        </mxCell>
        <mxCell id="_EepjbirNKDPAddTrqMV-80" value="" style="whiteSpace=wrap;html=1;rounded=1;fillColor=#e1d5e7;strokeColor=#9673a6;" parent="_EepjbirNKDPAddTrqMV-99" vertex="1">
          <mxGeometry width="240" height="200" as="geometry" />
        </mxCell>
        <mxCell id="_EepjbirNKDPAddTrqMV-81" value="&lt;div style=&quot;line-height: 19px;&quot;&gt;&lt;b&gt;Sky Lockstake Urn&lt;/b&gt;&lt;/div&gt;&lt;div style=&quot;line-height: 19px;&quot;&gt;&lt;br&gt;&lt;/div&gt;" style="text;html=1;align=center;verticalAlign=middle;whiteSpace=wrap;rounded=0;" parent="_EepjbirNKDPAddTrqMV-99" vertex="1">
          <mxGeometry x="50.32258064516129" y="10" width="123.87096774193549" height="30" as="geometry" />
        </mxCell>
        <mxCell id="_EepjbirNKDPAddTrqMV-82" value="stake() only LSE" style="rounded=1;whiteSpace=wrap;html=1;fillColor=#ffe6cc;strokeColor=#d79b00;align=left;" parent="_EepjbirNKDPAddTrqMV-99" vertex="1">
          <mxGeometry x="26.23" y="93" width="168.77" height="30" as="geometry" />
        </mxCell>
        <mxCell id="_EepjbirNKDPAddTrqMV-97" value="withdraw() only LSE" style="rounded=1;whiteSpace=wrap;html=1;fillColor=#ffe6cc;strokeColor=#d79b00;align=left;" parent="_EepjbirNKDPAddTrqMV-99" vertex="1">
          <mxGeometry x="27.23" y="137" width="167.77" height="30" as="geometry" />
        </mxCell>
        <mxCell id="_EepjbirNKDPAddTrqMV-115" value="getReward() only LSE" style="rounded=1;whiteSpace=wrap;html=1;fillColor=#ffe6cc;strokeColor=#d79b00;align=left;" parent="_EepjbirNKDPAddTrqMV-99" vertex="1">
          <mxGeometry x="27.23" y="48" width="168.77" height="30" as="geometry" />
        </mxCell>
        <mxCell id="_EepjbirNKDPAddTrqMV-76" value="" style="whiteSpace=wrap;html=1;rounded=1;fillColor=#e1d5e7;strokeColor=#9673a6;" parent="1" vertex="1">
          <mxGeometry x="890" y="195" width="270" height="410" as="geometry" />
        </mxCell>
        <mxCell id="_EepjbirNKDPAddTrqMV-6" value="" style="whiteSpace=wrap;html=1;rounded=1;" parent="1" vertex="1">
          <mxGeometry x="120" y="150" width="310" height="450" as="geometry" />
        </mxCell>
        <mxCell id="_EepjbirNKDPAddTrqMV-7" value="&lt;div style=&quot;line-height: 19px;&quot;&gt;&lt;b&gt;SKY+ vault&lt;/b&gt;&lt;/div&gt;&lt;div style=&quot;line-height: 19px;&quot;&gt;OrigamiDelegated4626Vault&lt;/div&gt;" style="text;html=1;align=center;verticalAlign=middle;whiteSpace=wrap;rounded=0;" parent="1" vertex="1">
          <mxGeometry x="190" y="160" width="160" height="30" as="geometry" />
        </mxCell>
        <mxCell id="_EepjbirNKDPAddTrqMV-12" value="" style="group" parent="1" vertex="1" connectable="0">
          <mxGeometry x="130" y="290" width="250" height="300" as="geometry" />
        </mxCell>
        <mxCell id="_EepjbirNKDPAddTrqMV-10" value="" style="whiteSpace=wrap;html=1;rounded=1;" parent="_EepjbirNKDPAddTrqMV-12" vertex="1">
          <mxGeometry y="-40" width="250" height="340" as="geometry" />
        </mxCell>
        <mxCell id="_EepjbirNKDPAddTrqMV-13" value="deposit()" style="rounded=1;whiteSpace=wrap;html=1;fillColor=#f8cecc;strokeColor=#b85450;align=left;" parent="_EepjbirNKDPAddTrqMV-12" vertex="1">
          <mxGeometry x="20" y="80" width="120" height="20" as="geometry" />
        </mxCell>
        <mxCell id="_EepjbirNKDPAddTrqMV-17" value="mint()" style="rounded=1;whiteSpace=wrap;html=1;fillColor=#f8cecc;strokeColor=#b85450;align=left;" parent="_EepjbirNKDPAddTrqMV-12" vertex="1">
          <mxGeometry x="20" y="100" width="120" height="20" as="geometry" />
        </mxCell>
        <mxCell id="_EepjbirNKDPAddTrqMV-15" value="withdraw()" style="rounded=1;whiteSpace=wrap;html=1;fillColor=#f8cecc;strokeColor=#b85450;align=left;" parent="_EepjbirNKDPAddTrqMV-12" vertex="1">
          <mxGeometry x="20" y="120" width="120" height="20" as="geometry" />
        </mxCell>
        <mxCell id="_EepjbirNKDPAddTrqMV-16" value="redeem()" style="rounded=1;whiteSpace=wrap;html=1;fillColor=#f8cecc;strokeColor=#b85450;align=left;" parent="_EepjbirNKDPAddTrqMV-12" vertex="1">
          <mxGeometry x="20" y="140" width="120" height="20" as="geometry" />
        </mxCell>
        <mxCell id="_EepjbirNKDPAddTrqMV-18" value="seedDeposit()" style="rounded=1;whiteSpace=wrap;html=1;fillColor=#f5f5f5;strokeColor=#666666;align=left;fontColor=#333333;" parent="_EepjbirNKDPAddTrqMV-12" vertex="1">
          <mxGeometry x="20" y="20" width="120" height="20" as="geometry" />
        </mxCell>
        <mxCell id="_EepjbirNKDPAddTrqMV-19" value="setter functions" style="rounded=1;whiteSpace=wrap;html=1;fillColor=#f5f5f5;strokeColor=#666666;align=left;fontColor=#333333;" parent="_EepjbirNKDPAddTrqMV-12" vertex="1">
          <mxGeometry x="20" y="40" width="120" height="20" as="geometry" />
        </mxCell>
        <mxCell id="_EepjbirNKDPAddTrqMV-20" value="ERC20 funtions" style="rounded=1;whiteSpace=wrap;html=1;fillColor=#f8cecc;strokeColor=#b85450;align=left;" parent="_EepjbirNKDPAddTrqMV-12" vertex="1">
          <mxGeometry x="20" y="200" width="120" height="20" as="geometry" />
        </mxCell>
        <mxCell id="_EepjbirNKDPAddTrqMV-11" value="&lt;div style=&quot;line-height: 19px;&quot;&gt;&lt;span style=&quot;background-color: transparent; color: light-dark(rgb(0, 0, 0), rgb(255, 255, 255));&quot;&gt;Origami4626&lt;/span&gt;&lt;/div&gt;" style="text;html=1;align=center;verticalAlign=middle;whiteSpace=wrap;rounded=0;" parent="_EepjbirNKDPAddTrqMV-12" vertex="1">
          <mxGeometry x="34.19354838709677" y="-30.00292682926829" width="129.03225806451613" height="21.95121951219512" as="geometry" />
        </mxCell>
        <mxCell id="_EepjbirNKDPAddTrqMV-73" value="setter functions" style="rounded=1;whiteSpace=wrap;html=1;fillColor=#f5f5f5;strokeColor=#666666;align=left;fontColor=#333333;" parent="_EepjbirNKDPAddTrqMV-12" vertex="1">
          <mxGeometry x="20" y="-85" width="120" height="20" as="geometry" />
        </mxCell>
        <mxCell id="_EepjbirNKDPAddTrqMV-21" value="" style="whiteSpace=wrap;html=1;rounded=1;" parent="1" vertex="1">
          <mxGeometry x="540" y="190" width="310" height="410" as="geometry" />
        </mxCell>
        <mxCell id="_EepjbirNKDPAddTrqMV-22" value="&lt;div style=&quot;line-height: 19px;&quot;&gt;&lt;b&gt;SuperSky Manager&lt;/b&gt;&lt;/div&gt;&lt;div style=&quot;line-height: 19px;&quot;&gt;OrigamiSuperSkyManager&lt;/div&gt;" style="text;html=1;align=center;verticalAlign=middle;whiteSpace=wrap;rounded=0;" parent="1" vertex="1">
          <mxGeometry x="600" y="200" width="160" height="30" as="geometry" />
        </mxCell>
        <mxCell id="_EepjbirNKDPAddTrqMV-41" value="setter functions onlyAdmin" style="rounded=1;whiteSpace=wrap;html=1;fillColor=#f5f5f5;strokeColor=#666666;align=left;fontColor=#333333;" parent="1" vertex="1">
          <mxGeometry x="558" y="430" width="170" height="30" as="geometry" />
        </mxCell>
        <mxCell id="_EepjbirNKDPAddTrqMV-79" value="SKY &amp;gt;&amp;gt;" style="edgeStyle=orthogonalEdgeStyle;shape=connector;curved=1;rounded=0;orthogonalLoop=1;jettySize=auto;html=1;exitX=1;exitY=0.25;exitDx=0;exitDy=0;entryX=0;entryY=0.25;entryDx=0;entryDy=0;strokeColor=#b85450;align=center;verticalAlign=middle;fontFamily=Helvetica;fontSize=11;fontColor=default;labelBackgroundColor=default;endArrow=classic;fillColor=#f8cecc;" parent="1" source="_EepjbirNKDPAddTrqMV-42" target="_EepjbirNKDPAddTrqMV-78" edge="1">
          <mxGeometry relative="1" as="geometry" />
        </mxCell>
        <mxCell id="_EepjbirNKDPAddTrqMV-42" value="deposit()" style="rounded=1;whiteSpace=wrap;html=1;fillColor=#f8cecc;strokeColor=#b85450;align=left;" parent="1" vertex="1">
          <mxGeometry x="560" y="330" width="170" height="30" as="geometry" />
        </mxCell>
        <mxCell id="_EepjbirNKDPAddTrqMV-91" value="&amp;lt;&amp;lt; SKY" style="edgeStyle=orthogonalEdgeStyle;shape=connector;curved=1;rounded=0;orthogonalLoop=1;jettySize=auto;html=1;exitX=1;exitY=0.25;exitDx=0;exitDy=0;entryX=0;entryY=0.5;entryDx=0;entryDy=0;strokeColor=#d79b00;align=center;verticalAlign=middle;fontFamily=Helvetica;fontSize=11;fontColor=default;labelBackgroundColor=default;endArrow=classic;fillColor=#ffe6cc;" parent="1" source="_EepjbirNKDPAddTrqMV-43" target="_EepjbirNKDPAddTrqMV-90" edge="1">
          <mxGeometry relative="1" as="geometry" />
        </mxCell>
        <mxCell id="_EepjbirNKDPAddTrqMV-43" value="withdraw() onlyVault" style="rounded=1;whiteSpace=wrap;html=1;fillColor=#ffe6cc;strokeColor=#d79b00;align=left;" parent="1" vertex="1">
          <mxGeometry x="560" y="380" width="170" height="30" as="geometry" />
        </mxCell>
        <mxCell id="_EepjbirNKDPAddTrqMV-114" value="&amp;lt;&amp;lt; rewardToken" style="edgeStyle=orthogonalEdgeStyle;shape=connector;curved=1;rounded=0;orthogonalLoop=1;jettySize=auto;html=1;exitX=1;exitY=0.25;exitDx=0;exitDy=0;strokeColor=#b85450;align=center;verticalAlign=middle;fontFamily=Helvetica;fontSize=11;fontColor=default;labelBackgroundColor=default;endArrow=classic;fillColor=#f8cecc;" parent="1" source="_EepjbirNKDPAddTrqMV-44" target="_EepjbirNKDPAddTrqMV-113" edge="1">
          <mxGeometry relative="1" as="geometry" />
        </mxCell>
        <mxCell id="IuhSo1bqEdqSrpheJLQs-2" value="rewardToken &amp;gt;&amp;gt;" style="edgeStyle=orthogonalEdgeStyle;rounded=1;orthogonalLoop=1;jettySize=auto;html=1;exitX=1;exitY=0.5;exitDx=0;exitDy=0;entryX=0;entryY=0.5;entryDx=0;entryDy=0;curved=0;strokeColor=#b85450;fillColor=#f8cecc;" parent="1" source="_EepjbirNKDPAddTrqMV-44" target="IuhSo1bqEdqSrpheJLQs-1" edge="1">
          <mxGeometry x="0.4667" relative="1" as="geometry">
            <mxPoint as="offset" />
          </mxGeometry>
        </mxCell>
        <mxCell id="_EepjbirNKDPAddTrqMV-44" value="claimFarmRewards()" style="rounded=1;whiteSpace=wrap;html=1;fillColor=#f8cecc;strokeColor=#b85450;align=left;" parent="1" vertex="1">
          <mxGeometry x="560" y="290" width="170" height="40" as="geometry" />
        </mxCell>
        <mxCell id="_EepjbirNKDPAddTrqMV-45" style="edgeStyle=orthogonalEdgeStyle;rounded=0;orthogonalLoop=1;jettySize=auto;html=1;exitX=1;exitY=0.5;exitDx=0;exitDy=0;curved=1;fillColor=#f8cecc;strokeColor=#b85450;entryX=0;entryY=0.75;entryDx=0;entryDy=0;" parent="1" source="_EepjbirNKDPAddTrqMV-13" target="_EepjbirNKDPAddTrqMV-42" edge="1">
          <mxGeometry relative="1" as="geometry">
            <mxPoint x="540" y="380" as="targetPoint" />
          </mxGeometry>
        </mxCell>
        <mxCell id="_EepjbirNKDPAddTrqMV-54" value="" style="group" parent="1" vertex="1" connectable="0">
          <mxGeometry x="-10" y="360" width="80" height="80" as="geometry" />
        </mxCell>
        <mxCell id="_EepjbirNKDPAddTrqMV-52" value="User" style="ellipse;whiteSpace=wrap;html=1;fillColor=#f8cecc;strokeColor=#b85450;" parent="_EepjbirNKDPAddTrqMV-54" vertex="1">
          <mxGeometry y="20" width="80" height="60" as="geometry" />
        </mxCell>
        <mxCell id="_EepjbirNKDPAddTrqMV-53" value="" style="ellipse;whiteSpace=wrap;html=1;fillColor=#f8cecc;strokeColor=#b85450;" parent="_EepjbirNKDPAddTrqMV-54" vertex="1">
          <mxGeometry x="20" width="40" height="30" as="geometry" />
        </mxCell>
        <mxCell id="_EepjbirNKDPAddTrqMV-55" value="" style="group" parent="1" vertex="1" connectable="0">
          <mxGeometry x="-10" y="250" width="80" height="80" as="geometry" />
        </mxCell>
        <mxCell id="_EepjbirNKDPAddTrqMV-46" value="Admin" style="ellipse;whiteSpace=wrap;html=1;fillColor=#f5f5f5;strokeColor=#666666;fontColor=#333333;" parent="_EepjbirNKDPAddTrqMV-55" vertex="1">
          <mxGeometry y="20" width="80" height="60" as="geometry" />
        </mxCell>
        <mxCell id="_EepjbirNKDPAddTrqMV-47" value="" style="ellipse;whiteSpace=wrap;html=1;fillColor=#f5f5f5;strokeColor=#666666;fontColor=#333333;" parent="_EepjbirNKDPAddTrqMV-55" vertex="1">
          <mxGeometry x="20" width="40" height="30" as="geometry" />
        </mxCell>
        <mxCell id="_EepjbirNKDPAddTrqMV-56" value="" style="group" parent="1" vertex="1" connectable="0">
          <mxGeometry x="440" y="130" width="80" height="80" as="geometry" />
        </mxCell>
        <mxCell id="_EepjbirNKDPAddTrqMV-57" value="User" style="ellipse;whiteSpace=wrap;html=1;fillColor=#f8cecc;strokeColor=#b85450;" parent="_EepjbirNKDPAddTrqMV-56" vertex="1">
          <mxGeometry y="20" width="80" height="60" as="geometry" />
        </mxCell>
        <mxCell id="_EepjbirNKDPAddTrqMV-58" value="" style="ellipse;whiteSpace=wrap;html=1;fillColor=#f8cecc;strokeColor=#b85450;" parent="_EepjbirNKDPAddTrqMV-56" vertex="1">
          <mxGeometry x="20" width="40" height="30" as="geometry" />
        </mxCell>
        <mxCell id="_EepjbirNKDPAddTrqMV-59" style="edgeStyle=orthogonalEdgeStyle;rounded=0;orthogonalLoop=1;jettySize=auto;html=1;exitX=0.5;exitY=1;exitDx=0;exitDy=0;entryX=0;entryY=0.25;entryDx=0;entryDy=0;fillColor=#f8cecc;strokeColor=#b85450;curved=1;" parent="1" source="_EepjbirNKDPAddTrqMV-57" target="_EepjbirNKDPAddTrqMV-42" edge="1">
          <mxGeometry relative="1" as="geometry" />
        </mxCell>
        <mxCell id="_EepjbirNKDPAddTrqMV-60" style="edgeStyle=orthogonalEdgeStyle;shape=connector;curved=1;rounded=0;orthogonalLoop=1;jettySize=auto;html=1;exitX=0.5;exitY=1;exitDx=0;exitDy=0;entryX=0;entryY=0.5;entryDx=0;entryDy=0;strokeColor=#b85450;align=center;verticalAlign=middle;fontFamily=Helvetica;fontSize=11;fontColor=default;labelBackgroundColor=default;endArrow=classic;fillColor=#f8cecc;" parent="1" source="_EepjbirNKDPAddTrqMV-57" target="_EepjbirNKDPAddTrqMV-44" edge="1">
          <mxGeometry relative="1" as="geometry" />
        </mxCell>
        <mxCell id="_EepjbirNKDPAddTrqMV-61" value="SKY &amp;gt;&amp;gt;" style="edgeStyle=orthogonalEdgeStyle;shape=connector;curved=1;rounded=0;orthogonalLoop=1;jettySize=auto;html=1;exitX=1;exitY=0.5;exitDx=0;exitDy=0;entryX=0;entryY=0.75;entryDx=0;entryDy=0;strokeColor=#b85450;align=center;verticalAlign=middle;fontFamily=Helvetica;fontSize=11;fontColor=default;labelBackgroundColor=default;endArrow=classic;fillColor=#f8cecc;" parent="1" source="_EepjbirNKDPAddTrqMV-17" target="_EepjbirNKDPAddTrqMV-42" edge="1">
          <mxGeometry relative="1" as="geometry" />
        </mxCell>
        <mxCell id="_EepjbirNKDPAddTrqMV-62" value="&amp;lt;&amp;lt; SKY" style="edgeStyle=orthogonalEdgeStyle;shape=connector;curved=1;rounded=0;orthogonalLoop=1;jettySize=auto;html=1;exitX=1;exitY=0.5;exitDx=0;exitDy=0;entryX=0;entryY=0.25;entryDx=0;entryDy=0;strokeColor=#b85450;align=center;verticalAlign=middle;fontFamily=Helvetica;fontSize=11;fontColor=default;labelBackgroundColor=default;endArrow=classic;fillColor=#f8cecc;" parent="1" source="_EepjbirNKDPAddTrqMV-15" target="_EepjbirNKDPAddTrqMV-43" edge="1">
          <mxGeometry x="-0.0137" y="-10" relative="1" as="geometry">
            <mxPoint as="offset" />
          </mxGeometry>
        </mxCell>
        <mxCell id="_EepjbirNKDPAddTrqMV-63" style="edgeStyle=orthogonalEdgeStyle;shape=connector;curved=1;rounded=0;orthogonalLoop=1;jettySize=auto;html=1;exitX=1;exitY=0.5;exitDx=0;exitDy=0;entryX=0;entryY=0.75;entryDx=0;entryDy=0;strokeColor=#b85450;align=center;verticalAlign=middle;fontFamily=Helvetica;fontSize=11;fontColor=default;labelBackgroundColor=default;endArrow=classic;fillColor=#f8cecc;" parent="1" source="_EepjbirNKDPAddTrqMV-16" target="_EepjbirNKDPAddTrqMV-43" edge="1">
          <mxGeometry relative="1" as="geometry" />
        </mxCell>
        <mxCell id="_EepjbirNKDPAddTrqMV-65" style="edgeStyle=orthogonalEdgeStyle;shape=connector;curved=1;rounded=0;orthogonalLoop=1;jettySize=auto;html=1;exitX=1;exitY=0.5;exitDx=0;exitDy=0;entryX=0;entryY=0.5;entryDx=0;entryDy=0;strokeColor=#b85450;align=center;verticalAlign=middle;fontFamily=Helvetica;fontSize=11;fontColor=default;labelBackgroundColor=default;endArrow=classic;fillColor=#f8cecc;" parent="1" source="_EepjbirNKDPAddTrqMV-52" target="_EepjbirNKDPAddTrqMV-13" edge="1">
          <mxGeometry relative="1" as="geometry" />
        </mxCell>
        <mxCell id="_EepjbirNKDPAddTrqMV-66" style="edgeStyle=orthogonalEdgeStyle;shape=connector;curved=1;rounded=0;orthogonalLoop=1;jettySize=auto;html=1;exitX=1;exitY=0.5;exitDx=0;exitDy=0;entryX=0;entryY=0.5;entryDx=0;entryDy=0;strokeColor=#b85450;align=center;verticalAlign=middle;fontFamily=Helvetica;fontSize=11;fontColor=default;labelBackgroundColor=default;endArrow=classic;fillColor=#f8cecc;" parent="1" source="_EepjbirNKDPAddTrqMV-52" target="_EepjbirNKDPAddTrqMV-17" edge="1">
          <mxGeometry relative="1" as="geometry" />
        </mxCell>
        <mxCell id="_EepjbirNKDPAddTrqMV-67" style="edgeStyle=orthogonalEdgeStyle;shape=connector;curved=1;rounded=0;orthogonalLoop=1;jettySize=auto;html=1;exitX=1;exitY=0.5;exitDx=0;exitDy=0;entryX=0;entryY=0.5;entryDx=0;entryDy=0;strokeColor=#b85450;align=center;verticalAlign=middle;fontFamily=Helvetica;fontSize=11;fontColor=default;labelBackgroundColor=default;endArrow=classic;fillColor=#f8cecc;" parent="1" source="_EepjbirNKDPAddTrqMV-52" target="_EepjbirNKDPAddTrqMV-15" edge="1">
          <mxGeometry relative="1" as="geometry" />
        </mxCell>
        <mxCell id="_EepjbirNKDPAddTrqMV-69" style="edgeStyle=orthogonalEdgeStyle;shape=connector;curved=1;rounded=0;orthogonalLoop=1;jettySize=auto;html=1;exitX=1;exitY=1;exitDx=0;exitDy=0;entryX=0;entryY=0.5;entryDx=0;entryDy=0;strokeColor=#b85450;align=center;verticalAlign=middle;fontFamily=Helvetica;fontSize=11;fontColor=default;labelBackgroundColor=default;endArrow=classic;fillColor=#f8cecc;" parent="1" source="_EepjbirNKDPAddTrqMV-52" target="_EepjbirNKDPAddTrqMV-20" edge="1">
          <mxGeometry relative="1" as="geometry" />
        </mxCell>
        <mxCell id="_EepjbirNKDPAddTrqMV-70" style="edgeStyle=orthogonalEdgeStyle;shape=connector;curved=1;rounded=0;orthogonalLoop=1;jettySize=auto;html=1;exitX=1;exitY=0.5;exitDx=0;exitDy=0;entryX=0;entryY=0.25;entryDx=0;entryDy=0;strokeColor=#666666;align=center;verticalAlign=middle;fontFamily=Helvetica;fontSize=11;fontColor=default;labelBackgroundColor=default;endArrow=classic;fillColor=#f5f5f5;" parent="1" source="_EepjbirNKDPAddTrqMV-46" target="_EepjbirNKDPAddTrqMV-18" edge="1">
          <mxGeometry relative="1" as="geometry" />
        </mxCell>
        <mxCell id="_EepjbirNKDPAddTrqMV-71" style="edgeStyle=orthogonalEdgeStyle;shape=connector;curved=1;rounded=0;orthogonalLoop=1;jettySize=auto;html=1;exitX=1;exitY=0.5;exitDx=0;exitDy=0;entryX=0;entryY=0.5;entryDx=0;entryDy=0;strokeColor=#666666;align=center;verticalAlign=middle;fontFamily=Helvetica;fontSize=11;fontColor=default;labelBackgroundColor=default;endArrow=classic;fillColor=#f5f5f5;" parent="1" source="_EepjbirNKDPAddTrqMV-46" target="_EepjbirNKDPAddTrqMV-19" edge="1">
          <mxGeometry relative="1" as="geometry" />
        </mxCell>
        <mxCell id="_EepjbirNKDPAddTrqMV-72" style="edgeStyle=orthogonalEdgeStyle;shape=connector;curved=1;rounded=0;orthogonalLoop=1;jettySize=auto;html=1;exitX=1;exitY=0.5;exitDx=0;exitDy=0;strokeColor=#b85450;align=center;verticalAlign=middle;fontFamily=Helvetica;fontSize=11;fontColor=default;labelBackgroundColor=default;endArrow=classic;fillColor=#f8cecc;" parent="1" source="_EepjbirNKDPAddTrqMV-52" target="_EepjbirNKDPAddTrqMV-16" edge="1">
          <mxGeometry relative="1" as="geometry" />
        </mxCell>
        <mxCell id="_EepjbirNKDPAddTrqMV-74" style="edgeStyle=orthogonalEdgeStyle;shape=connector;curved=1;rounded=0;orthogonalLoop=1;jettySize=auto;html=1;exitX=1;exitY=0.5;exitDx=0;exitDy=0;entryX=0;entryY=0.5;entryDx=0;entryDy=0;strokeColor=#666666;align=center;verticalAlign=middle;fontFamily=Helvetica;fontSize=11;fontColor=default;labelBackgroundColor=default;endArrow=classic;fillColor=#f5f5f5;" parent="1" source="_EepjbirNKDPAddTrqMV-46" target="_EepjbirNKDPAddTrqMV-73" edge="1">
          <mxGeometry relative="1" as="geometry" />
        </mxCell>
        <mxCell id="_EepjbirNKDPAddTrqMV-77" value="&lt;div style=&quot;line-height: 19px;&quot;&gt;&lt;b&gt;Sky Lockstake Engine&lt;/b&gt;&lt;/div&gt;&lt;div style=&quot;line-height: 19px;&quot;&gt;&lt;br&gt;&lt;/div&gt;" style="text;html=1;align=center;verticalAlign=middle;whiteSpace=wrap;rounded=0;" parent="1" vertex="1">
          <mxGeometry x="945" y="210" width="160" height="30" as="geometry" />
        </mxCell>
        <mxCell id="_EepjbirNKDPAddTrqMV-83" style="edgeStyle=orthogonalEdgeStyle;shape=connector;curved=1;rounded=0;orthogonalLoop=1;jettySize=auto;html=1;exitX=1;exitY=0.5;exitDx=0;exitDy=0;entryX=0;entryY=0.5;entryDx=0;entryDy=0;strokeColor=#b85450;align=center;verticalAlign=middle;fontFamily=Helvetica;fontSize=11;fontColor=default;labelBackgroundColor=default;endArrow=classic;fillColor=#f8cecc;" parent="1" source="_EepjbirNKDPAddTrqMV-78" target="_EepjbirNKDPAddTrqMV-82" edge="1">
          <mxGeometry relative="1" as="geometry" />
        </mxCell>
        <mxCell id="_EepjbirNKDPAddTrqMV-84" value="LSSKY &amp;gt;&amp;gt;" style="edgeLabel;html=1;align=center;verticalAlign=middle;resizable=0;points=[];fontFamily=Helvetica;fontSize=11;fontColor=default;labelBackgroundColor=default;" parent="_EepjbirNKDPAddTrqMV-83" vertex="1" connectable="0">
          <mxGeometry x="0.5672" y="-10" relative="1" as="geometry">
            <mxPoint x="-9" y="-10" as="offset" />
          </mxGeometry>
        </mxCell>
        <mxCell id="_EepjbirNKDPAddTrqMV-78" value="lock()" style="rounded=1;whiteSpace=wrap;html=1;fillColor=#f8cecc;strokeColor=#b85450;align=left;" parent="1" vertex="1">
          <mxGeometry x="910" y="320" width="170" height="30" as="geometry" />
        </mxCell>
        <mxCell id="_EepjbirNKDPAddTrqMV-98" value="&amp;lt;&amp;lt; LSSKY" style="edgeStyle=orthogonalEdgeStyle;shape=connector;curved=1;rounded=0;orthogonalLoop=1;jettySize=auto;html=1;exitX=1;exitY=0.25;exitDx=0;exitDy=0;entryX=0;entryY=0.5;entryDx=0;entryDy=0;strokeColor=#d79b00;align=center;verticalAlign=middle;fontFamily=Helvetica;fontSize=11;fontColor=default;labelBackgroundColor=default;endArrow=classic;fillColor=#ffe6cc;" parent="1" source="_EepjbirNKDPAddTrqMV-90" target="_EepjbirNKDPAddTrqMV-97" edge="1">
          <mxGeometry x="0.5362" y="-5" relative="1" as="geometry">
            <mxPoint x="1" as="offset" />
          </mxGeometry>
        </mxCell>
        <mxCell id="_EepjbirNKDPAddTrqMV-90" value="free()" style="rounded=1;whiteSpace=wrap;html=1;fillColor=#f8cecc;strokeColor=#b85450;align=left;" parent="1" vertex="1">
          <mxGeometry x="910" y="370" width="170" height="30" as="geometry" />
        </mxCell>
        <mxCell id="_EepjbirNKDPAddTrqMV-94" value="" style="group" parent="1" vertex="1" connectable="0">
          <mxGeometry x="1240" y="130" width="220" height="100" as="geometry" />
        </mxCell>
        <mxCell id="_EepjbirNKDPAddTrqMV-85" value="" style="whiteSpace=wrap;html=1;rounded=1;fillColor=#e1d5e7;strokeColor=#9673a6;" parent="_EepjbirNKDPAddTrqMV-94" vertex="1">
          <mxGeometry width="220" height="100" as="geometry" />
        </mxCell>
        <mxCell id="_EepjbirNKDPAddTrqMV-86" value="&lt;div style=&quot;line-height: 19px;&quot;&gt;&lt;b&gt;LSSKY&lt;/b&gt;&lt;/div&gt;" style="text;html=1;align=center;verticalAlign=middle;whiteSpace=wrap;rounded=0;" parent="_EepjbirNKDPAddTrqMV-94" vertex="1">
          <mxGeometry x="35" width="160" height="30" as="geometry" />
        </mxCell>
        <mxCell id="_EepjbirNKDPAddTrqMV-87" value="mint()" style="rounded=1;whiteSpace=wrap;html=1;fillColor=#f8cecc;strokeColor=#b85450;align=left;" parent="_EepjbirNKDPAddTrqMV-94" vertex="1">
          <mxGeometry x="15" y="30" width="170" height="20" as="geometry" />
        </mxCell>
        <mxCell id="_EepjbirNKDPAddTrqMV-92" value="burn" style="rounded=1;whiteSpace=wrap;html=1;fillColor=#f8cecc;strokeColor=#b85450;align=left;" parent="_EepjbirNKDPAddTrqMV-94" vertex="1">
          <mxGeometry x="15" y="60" width="170" height="20" as="geometry" />
        </mxCell>
        <mxCell id="_EepjbirNKDPAddTrqMV-93" value="LSSKY &amp;gt;&amp;gt;" style="edgeStyle=orthogonalEdgeStyle;shape=connector;curved=1;rounded=0;orthogonalLoop=1;jettySize=auto;html=1;exitX=1;exitY=0.75;exitDx=0;exitDy=0;entryX=0;entryY=0.5;entryDx=0;entryDy=0;strokeColor=#d79b00;align=center;verticalAlign=middle;fontFamily=Helvetica;fontSize=11;fontColor=default;labelBackgroundColor=default;endArrow=classic;fillColor=#ffe6cc;" parent="1" source="_EepjbirNKDPAddTrqMV-90" target="_EepjbirNKDPAddTrqMV-92" edge="1">
          <mxGeometry x="0.8564" relative="1" as="geometry">
            <mxPoint as="offset" />
          </mxGeometry>
        </mxCell>
        <mxCell id="_EepjbirNKDPAddTrqMV-88" value="&amp;lt;&amp;lt; LSSKY" style="edgeStyle=orthogonalEdgeStyle;shape=connector;curved=1;rounded=0;orthogonalLoop=1;jettySize=auto;html=1;entryX=0;entryY=0.5;entryDx=0;entryDy=0;strokeColor=#b85450;align=center;verticalAlign=middle;fontFamily=Helvetica;fontSize=11;fontColor=default;labelBackgroundColor=default;endArrow=classic;fillColor=#f8cecc;exitX=1;exitY=0.25;exitDx=0;exitDy=0;" parent="1" source="_EepjbirNKDPAddTrqMV-78" target="_EepjbirNKDPAddTrqMV-87" edge="1">
          <mxGeometry x="0.7333" relative="1" as="geometry">
            <Array as="points">
              <mxPoint x="1160" y="328" />
              <mxPoint x="1160" y="170" />
            </Array>
            <mxPoint as="offset" />
          </mxGeometry>
        </mxCell>
        <mxCell id="_EepjbirNKDPAddTrqMV-108" style="edgeStyle=orthogonalEdgeStyle;shape=connector;curved=1;rounded=0;orthogonalLoop=1;jettySize=auto;html=1;exitX=1;exitY=0.5;exitDx=0;exitDy=0;entryX=0;entryY=0.5;entryDx=0;entryDy=0;strokeColor=#666666;align=center;verticalAlign=middle;fontFamily=Helvetica;fontSize=11;fontColor=default;labelBackgroundColor=default;endArrow=classic;fillColor=#f5f5f5;" parent="1" source="_EepjbirNKDPAddTrqMV-101" target="_EepjbirNKDPAddTrqMV-107" edge="1">
          <mxGeometry relative="1" as="geometry" />
        </mxCell>
        <mxCell id="_EepjbirNKDPAddTrqMV-101" value="switchFarms() onlyAdmin" style="rounded=1;whiteSpace=wrap;html=1;fillColor=#f5f5f5;strokeColor=#666666;align=left;fontColor=#333333;" parent="1" vertex="1">
          <mxGeometry x="558" y="470" width="170" height="30" as="geometry" />
        </mxCell>
        <mxCell id="_EepjbirNKDPAddTrqMV-102" value="" style="group" parent="1" vertex="1" connectable="0">
          <mxGeometry x="446" y="559" width="80" height="80" as="geometry" />
        </mxCell>
        <mxCell id="_EepjbirNKDPAddTrqMV-103" value="Admin" style="ellipse;whiteSpace=wrap;html=1;fillColor=#f5f5f5;strokeColor=#666666;fontColor=#333333;" parent="_EepjbirNKDPAddTrqMV-102" vertex="1">
          <mxGeometry y="20" width="80" height="60" as="geometry" />
        </mxCell>
        <mxCell id="_EepjbirNKDPAddTrqMV-104" value="" style="ellipse;whiteSpace=wrap;html=1;fillColor=#f5f5f5;strokeColor=#666666;fontColor=#333333;" parent="_EepjbirNKDPAddTrqMV-102" vertex="1">
          <mxGeometry x="20" width="40" height="30" as="geometry" />
        </mxCell>
        <mxCell id="_EepjbirNKDPAddTrqMV-105" style="edgeStyle=orthogonalEdgeStyle;shape=connector;curved=1;rounded=0;orthogonalLoop=1;jettySize=auto;html=1;exitX=0.5;exitY=0;exitDx=0;exitDy=0;entryX=0;entryY=0.5;entryDx=0;entryDy=0;strokeColor=#666666;align=center;verticalAlign=middle;fontFamily=Helvetica;fontSize=11;fontColor=default;labelBackgroundColor=default;endArrow=classic;fillColor=#f5f5f5;" parent="1" source="_EepjbirNKDPAddTrqMV-104" target="_EepjbirNKDPAddTrqMV-41" edge="1">
          <mxGeometry relative="1" as="geometry" />
        </mxCell>
        <mxCell id="_EepjbirNKDPAddTrqMV-106" style="edgeStyle=orthogonalEdgeStyle;shape=connector;curved=1;rounded=0;orthogonalLoop=1;jettySize=auto;html=1;exitX=0.5;exitY=0;exitDx=0;exitDy=0;entryX=0;entryY=0.5;entryDx=0;entryDy=0;strokeColor=#666666;align=center;verticalAlign=middle;fontFamily=Helvetica;fontSize=11;fontColor=default;labelBackgroundColor=default;endArrow=classic;fillColor=#f5f5f5;" parent="1" source="_EepjbirNKDPAddTrqMV-104" target="_EepjbirNKDPAddTrqMV-101" edge="1">
          <mxGeometry relative="1" as="geometry" />
        </mxCell>
        <mxCell id="_EepjbirNKDPAddTrqMV-109" style="edgeStyle=orthogonalEdgeStyle;shape=connector;curved=1;rounded=0;orthogonalLoop=1;jettySize=auto;html=1;exitX=1;exitY=0.25;exitDx=0;exitDy=0;entryX=0;entryY=0.75;entryDx=0;entryDy=0;strokeColor=#666666;align=center;verticalAlign=middle;fontFamily=Helvetica;fontSize=11;fontColor=default;labelBackgroundColor=default;endArrow=classic;fillColor=#f5f5f5;" parent="1" source="_EepjbirNKDPAddTrqMV-107" target="_EepjbirNKDPAddTrqMV-97" edge="1">
          <mxGeometry relative="1" as="geometry" />
        </mxCell>
        <mxCell id="_EepjbirNKDPAddTrqMV-110" style="edgeStyle=orthogonalEdgeStyle;shape=connector;curved=1;rounded=0;orthogonalLoop=1;jettySize=auto;html=1;exitX=1;exitY=0.75;exitDx=0;exitDy=0;entryX=0;entryY=0.75;entryDx=0;entryDy=0;strokeColor=#666666;align=center;verticalAlign=middle;fontFamily=Helvetica;fontSize=11;fontColor=default;labelBackgroundColor=default;endArrow=classic;fillColor=#f5f5f5;" parent="1" source="_EepjbirNKDPAddTrqMV-107" target="_EepjbirNKDPAddTrqMV-82" edge="1">
          <mxGeometry relative="1" as="geometry" />
        </mxCell>
        <mxCell id="_EepjbirNKDPAddTrqMV-107" value="selectFarm()" style="rounded=1;whiteSpace=wrap;html=1;fillColor=#f5f5f5;strokeColor=#666666;align=left;fontColor=#333333;" parent="1" vertex="1">
          <mxGeometry x="910" y="470" width="170" height="30" as="geometry" />
        </mxCell>
        <mxCell id="_EepjbirNKDPAddTrqMV-122" value="&amp;lt;&amp;lt; USDS" style="edgeStyle=orthogonalEdgeStyle;shape=connector;curved=1;rounded=0;orthogonalLoop=1;jettySize=auto;html=1;exitX=1;exitY=0.5;exitDx=0;exitDy=0;entryX=0;entryY=0.5;entryDx=0;entryDy=0;strokeColor=#b85450;align=center;verticalAlign=middle;fontFamily=Helvetica;fontSize=11;fontColor=default;labelBackgroundColor=default;endArrow=classic;fillColor=#f8cecc;" parent="1" source="_EepjbirNKDPAddTrqMV-113" target="_EepjbirNKDPAddTrqMV-115" edge="1">
          <mxGeometry x="0.5257" y="3" relative="1" as="geometry">
            <mxPoint as="offset" />
          </mxGeometry>
        </mxCell>
        <mxCell id="_EepjbirNKDPAddTrqMV-113" value="getReward()" style="rounded=1;whiteSpace=wrap;html=1;fillColor=#f8cecc;strokeColor=#b85450;align=left;" parent="1" vertex="1">
          <mxGeometry x="910" y="275" width="170" height="30" as="geometry" />
        </mxCell>
        <mxCell id="_EepjbirNKDPAddTrqMV-116" value="" style="group" parent="1" vertex="1" connectable="0">
          <mxGeometry x="1512" y="280" width="240" height="200" as="geometry" />
        </mxCell>
        <mxCell id="_EepjbirNKDPAddTrqMV-117" value="" style="whiteSpace=wrap;html=1;rounded=1;fillColor=#e1d5e7;strokeColor=#9673a6;" parent="_EepjbirNKDPAddTrqMV-116" vertex="1">
          <mxGeometry width="240" height="200" as="geometry" />
        </mxCell>
        <mxCell id="_EepjbirNKDPAddTrqMV-118" value="&lt;div style=&quot;line-height: 19px;&quot;&gt;&lt;div style=&quot;line-height: 19px;&quot;&gt;&lt;b&gt;StakingRewardsLike&lt;/b&gt;&lt;/div&gt;&lt;div style=&quot;line-height: 19px;&quot;&gt;&lt;b&gt;(Synthetix like)&lt;/b&gt;&lt;/div&gt;&lt;/div&gt;" style="text;html=1;align=center;verticalAlign=middle;whiteSpace=wrap;rounded=0;" parent="_EepjbirNKDPAddTrqMV-116" vertex="1">
          <mxGeometry x="50.32258064516129" y="10" width="123.87096774193549" height="30" as="geometry" />
        </mxCell>
        <mxCell id="_EepjbirNKDPAddTrqMV-119" value="stake()" style="rounded=1;whiteSpace=wrap;html=1;fillColor=#f8cecc;strokeColor=#b85450;align=left;" parent="_EepjbirNKDPAddTrqMV-116" vertex="1">
          <mxGeometry x="27.225806451612904" y="97" width="131.61290322580643" height="30" as="geometry" />
        </mxCell>
        <mxCell id="_EepjbirNKDPAddTrqMV-120" value="withdraw()" style="rounded=1;whiteSpace=wrap;html=1;fillColor=#f8cecc;strokeColor=#b85450;align=left;" parent="_EepjbirNKDPAddTrqMV-116" vertex="1">
          <mxGeometry x="27.225806451612904" y="137" width="131.61290322580643" height="30" as="geometry" />
        </mxCell>
        <mxCell id="_EepjbirNKDPAddTrqMV-121" value="getReward()" style="rounded=1;whiteSpace=wrap;html=1;fillColor=#f8cecc;strokeColor=#b85450;align=left;" parent="_EepjbirNKDPAddTrqMV-116" vertex="1">
          <mxGeometry x="27.230000000000018" y="58" width="131.61290322580643" height="30" as="geometry" />
        </mxCell>
        <mxCell id="_EepjbirNKDPAddTrqMV-123" value="&amp;lt;&amp;lt; USDS" style="edgeStyle=orthogonalEdgeStyle;shape=connector;curved=1;rounded=0;orthogonalLoop=1;jettySize=auto;html=1;exitX=1;exitY=0.25;exitDx=0;exitDy=0;strokeColor=#b85450;align=center;verticalAlign=middle;fontFamily=Helvetica;fontSize=11;fontColor=default;labelBackgroundColor=default;endArrow=classic;fillColor=#f8cecc;" parent="1" source="_EepjbirNKDPAddTrqMV-115" target="_EepjbirNKDPAddTrqMV-121" edge="1">
          <mxGeometry relative="1" as="geometry" />
        </mxCell>
        <mxCell id="_EepjbirNKDPAddTrqMV-124" value="LSSKY &amp;gt;&amp;gt;" style="edgeStyle=orthogonalEdgeStyle;shape=connector;curved=1;rounded=0;orthogonalLoop=1;jettySize=auto;html=1;exitX=1;exitY=0.5;exitDx=0;exitDy=0;entryX=0;entryY=0.5;entryDx=0;entryDy=0;strokeColor=#b85450;align=center;verticalAlign=middle;fontFamily=Helvetica;fontSize=11;fontColor=default;labelBackgroundColor=default;endArrow=classic;fillColor=#f8cecc;" parent="1" source="_EepjbirNKDPAddTrqMV-82" target="_EepjbirNKDPAddTrqMV-119" edge="1">
          <mxGeometry relative="1" as="geometry" />
        </mxCell>
        <mxCell id="_EepjbirNKDPAddTrqMV-125" value="&amp;lt;&amp;lt; LSSKY" style="edgeStyle=orthogonalEdgeStyle;shape=connector;curved=1;rounded=0;orthogonalLoop=1;jettySize=auto;html=1;exitX=1;exitY=0.5;exitDx=0;exitDy=0;strokeColor=#b85450;align=center;verticalAlign=middle;fontFamily=Helvetica;fontSize=11;fontColor=default;labelBackgroundColor=default;endArrow=classic;fillColor=#f8cecc;" parent="1" source="_EepjbirNKDPAddTrqMV-97" target="_EepjbirNKDPAddTrqMV-120" edge="1">
          <mxGeometry relative="1" as="geometry" />
        </mxCell>
        <mxCell id="IuhSo1bqEdqSrpheJLQs-3" style="edgeStyle=orthogonalEdgeStyle;rounded=1;orthogonalLoop=1;jettySize=auto;html=1;exitX=0.25;exitY=1;exitDx=0;exitDy=0;entryX=1;entryY=0.75;entryDx=0;entryDy=0;curved=0;" parent="1" source="IuhSo1bqEdqSrpheJLQs-1" target="_EepjbirNKDPAddTrqMV-44" edge="1">
          <mxGeometry relative="1" as="geometry" />
        </mxCell>
        <mxCell id="IuhSo1bqEdqSrpheJLQs-4" value="&amp;lt;&amp;lt; SKY" style="edgeLabel;html=1;align=center;verticalAlign=middle;resizable=0;points=[];" parent="IuhSo1bqEdqSrpheJLQs-3" vertex="1" connectable="0">
          <mxGeometry x="-0.871" relative="1" as="geometry">
            <mxPoint y="25" as="offset" />
          </mxGeometry>
        </mxCell>
        <mxCell id="IuhSo1bqEdqSrpheJLQs-1" value="Swapper" style="rounded=1;whiteSpace=wrap;html=1;" parent="1" vertex="1">
          <mxGeometry x="790" y="40" width="120" height="60" as="geometry" />
        </mxCell>
      </root>
    </mxGraphModel>
  </diagram>
</mxfile>
